<svg xmlns="http://www.w3.org/2000/svg" version="1.1" width="24" height="24">
    <svg xmlns="http://www.w3.org/2000/svg" version="1.1" width="24"
         height="24">
        <svg width="24" height="24" version="1.1" id="svg4" sodipodi:docname="var4.svg"
             inkscape:version="1.3.2 (091e20e, 2023-11-25, custom)"
             xmlns:inkscape="http://www.inkscape.org/namespaces/inkscape"
             xmlns:sodipodi="http://sodipodi.sourceforge.net/DTD/sodipodi-0.dtd" xmlns="http://www.w3.org/2000/svg"
        >
            <defs id="defs4"></defs>
            <sodipodi:namedview id="namedview4" pagecolor="#ffffff" bordercolor="#000000" borderopacity="0.25"
                                inkscape:showpageshadow="2" inkscape:pageopacity="0.0" inkscape:pagecheckerboard="0"
                                inkscape:deskcolor="#d1d1d1" inkscape:zoom="32.244069" inkscape:cx="6.5128256"
                                inkscape:cy="12.141768" inkscape:window-width="1920" inkscape:window-height="1111"
                                inkscape:window-x="-9" inkscape:window-y="1341" inkscape:window-maximized="1"
                                inkscape:current-layer="svg4" showgrid="false">
                <inkscape:grid id="grid1" units="px" originx="0" originy="0" spacingx="1" spacingy="1"
                               empcolor="#0099e5" empopacity="0.30196078" color="#0099e5" opacity="0.14901961"
                               empspacing="5" dotted="false" gridanglex="30" gridanglez="30"
                               visible="false"></inkscape:grid>
            </sodipodi:namedview>
            <ellipse
                    style="fill:#ffffff;fill-opacity:1;stroke-width:1;stroke-linecap:round;stroke-linejoin:round;paint-order:stroke fill markers"
                    id="path5" cx="11.995613" cy="9.5394745" rx="7.3464913" ry="7.499999"></ellipse>
            <path fill-rule="evenodd" fill="#189149"
                  d="m 16.514863,17.673739 c 0,0 2.264931,-1.506125 2.488622,-4.426981 0.22369,-2.920856 -0.09498,-4.5093742 4.355052,-6.5855918 0,0 2.867073,10.1853488 -6.843674,11.0125728 z M 0.58856133,6.6611662 C 5.042836,8.7373838 4.7238738,10.325902 4.9477474,13.246758 c 0.2239101,2.920856 2.491,4.426981 2.491,4.426981 C -2.28122,16.846515 0.58856133,6.6611662 0.58856133,6.6611662 Z"
                  id="path1" style="stroke-width:1;fill:#16a954;fill-opacity:1"></path>
            <path fill-rule="evenodd" fill="#113362"
                  d="M 19.29069,8.7466036 C 18.176627,1.9314309 11.973366,2.161012 11.973366,2.161012 c 0,0 -6.2032612,-0.2295811 -7.3173238,6.5855916 0,0 -0.475626,-0.7225858 -0.9146655,-1.061012 0,0 1.4817581,-6.5855916 8.2319893,-6.5855916 6.750231,0 8.231989,6.5855916 8.231989,6.5855916 -0.439039,0.3384262 -0.914665,1.061012 -0.914665,1.061012 z"
                  id="path2" style="stroke-width:1;fill:#1b54a8;fill-opacity:1"></path>
            <path fill-rule="evenodd" fill="#113362"
                  d="m 11.973366,18.076192 c 0,0 -5.832529,0.148029 -6.2563118,-4.609914 0,0 1.9502132,3.538914 6.2563118,3.512315 4.306099,0.0266 6.256312,-3.512315 6.256312,-3.512315 -0.423783,4.757943 -6.256312,4.609914 -6.256312,4.609914 z"
                  id="path4" style="stroke-width:1;fill:#12396b;fill-opacity:1"></path>
            <path fill-rule="evenodd" fill="#f0da21"
                  d="m 5.1970858,17.915945 c 4.4224711,1.367718 9.2478152,1.367745 13.6702802,5.3e-5 0.07332,-0.02254 0.14722,-0.03738 0.221033,-0.0453 0.01824,-0.0023 0.03712,-0.004 0.0553,-0.0053 0.01825,-0.0013 0.03691,-0.0019 0.05513,-0.0022 0.03675,-3.71e-4 0.07332,0.0012 0.109438,0.0048 0.145028,0.01229 0.28573,0.05149 0.414872,0.11465 0.258176,0.126272 0.470409,0.347984 0.575877,0.640809 0.09844,0.279993 0.197915,0.559882 0.297781,0.839638 0.02664,0.07308 0.04438,0.147399 0.05394,0.222056 0.001,0.01861 0.0048,0.03725 0.007,0.05596 10e-4,0.01864 10e-4,0.03728 10e-4,0.05599 5.43e-4,0.03725 -10e-4,0.07468 -0.0048,0.111658 -0.01353,0.148287 -0.05959,0.293428 -0.133063,0.426837 -0.147023,0.266823 -0.405774,0.486775 -0.741973,0.590194 -2.502924,0.771796 -5.124609,1.163262 -7.746739,1.162816 C 9.4098747,22.08946 6.78819,21.698018 4.2852794,20.926209 3.9487536,20.822845 3.6899541,20.602893 3.5430119,20.336046 3.4694719,20.202634 3.4237911,20.057495 3.4098745,19.909232 c -0.00349,-0.03703 -0.00511,-0.07439 -0.00421,-0.111656 2.631e-4,-0.01861 8.957e-4,-0.03725 0.00265,-0.05597 0.00133,-0.01864 0.00309,-0.03729 0.00525,-0.05596 0.00939,-0.07471 0.027202,-0.149005 0.053828,-0.222061 0.099813,-0.279731 0.1990885,-0.559619 0.2977348,-0.839638 0.1054824,-0.292802 0.3177075,-0.514513 0.5759027,-0.640786 0.1291086,-0.06305 0.2698454,-0.102392 0.4148666,-0.114648 0.036238,-0.0036 0.072778,-0.0052 0.1094517,-0.0048 0.01838,1.83e-4 0.03672,9.24e-4 0.055128,0.0022 0.018395,0.0013 0.03683,0.0029 0.05529,0.0053 0.073767,0.0084 0.1477525,0.02278 0.2210309,0.04533 z"
                  id="path3" style="fill:#f0e406;fill-opacity:1;stroke-width:0.999906"></path>
            <path fill="#2768dc" opacity="1" stroke="none"
                  d="M 9.5611001,15.296012 C 7.0814898,14.163688 5.6260477,11.709922 5.8782088,9.1209563 6.1326843,6.508215 7.9739067,4.32265 10.507896,3.7398754 c 2.49466,-0.573735 4.638447,0.1236672 6.237017,2.1222169 1.598456,1.9984072 1.840217,4.2594647 0.68872,6.5445357 -1.157355,2.296696 -3.119675,3.431501 -5.697791,3.3563 -0.719853,-0.02101 -1.432268,-0.297004 -2.1747419,-0.466916 M 14.170561,9.3126982 c 0.220503,-0.7718738 0.441006,-1.5437486 0.681265,-2.3847944 -0.218383,0.016852 -0.330425,0.00824 -0.432559,0.03604 -1.035773,0.281921 -2.077512,0.5454696 -3.101732,0.8649481 -0.631792,0.1970677 -1.050889,0.6573256 -1.237347,1.3055003 -0.2899178,1.0078108 -0.5778611,2.0161948 -0.8632203,3.0253018 -0.021902,0.07745 -0.016781,0.162539 -0.024409,0.246172 0.06112,0.01556 0.1005687,0.0399 0.1303607,0.03119 1.2202026,-0.356782 2.4452426,-0.698653 3.6558496,-1.085693 0.419443,-0.134099 0.689493,-0.476665 0.819462,-0.915028 0.106448,-0.358994 0.232657,-0.7121257 0.37233,-1.1236214 z"
                  id="path12" style="stroke-width:0.99999"></path>
        </svg>
    </svg>
    <style>@media (prefers-color-scheme: light) { :root { filter: none; } }
        @media (prefers-color-scheme: dark) { :root { filter: none; } }
    </style>
</svg>